<svg width="38" height="36" viewBox="0 0 38 36" fill="none" xmlns="http://www.w3.org/2000/svg">
<path d="M34.1909 15.1198H32.9625V15.0588H19.2375V20.9412H27.8561C26.5987 24.3654 23.2201 26.8235 19.2375 26.8235C14.1845 26.8235 10.0875 22.8728 10.0875 18C10.0875 13.1272 14.1845 9.17645 19.2375 9.17645C21.57 9.17645 23.6921 10.025 25.3078 11.411L29.6213 7.25145C26.8976 4.80366 23.2544 3.2941 19.2375 3.2941C10.8157 3.2941 3.98755 9.87866 3.98755 18C3.98755 26.1213 10.8157 32.7059 19.2375 32.7059C27.6594 32.7059 34.4875 26.1213 34.4875 18C34.4875 17.014 34.3823 16.0515 34.1909 15.1198Z" fill="#FFC107"/>
<path d="M5.74585 11.1551L10.7562 14.6985C12.112 11.4617 15.3953 9.17645 19.2375 9.17645C21.57 9.17645 23.692 10.025 25.3078 11.411L29.6213 7.25145C26.8976 4.80366 23.2544 3.2941 19.2375 3.2941C13.38 3.2941 8.30022 6.48307 5.74585 11.1551Z" fill="#FF3D00"/>
<path d="M19.2374 32.7059C23.1765 32.7059 26.7557 31.2522 29.4618 28.8882L24.7419 25.0367C23.2108 26.1551 21.3076 26.8235 19.2374 26.8235C15.2709 26.8235 11.903 24.3845 10.6342 20.9809L5.66113 24.6757C8.18501 29.4382 13.3105 32.7059 19.2374 32.7059Z" fill="#4CAF50"/>
<path d="M34.1909 15.1198H32.9625V15.0588H19.2375V20.9412H27.8561C27.2522 22.586 26.1549 24.0044 24.7397 25.0375C24.7405 25.0367 24.7413 25.0367 24.742 25.036L29.4619 28.8875C29.1279 29.1801 34.4875 25.3529 34.4875 18C34.4875 17.014 34.3823 16.0515 34.1909 15.1198Z" fill="#1976D2"/>
</svg>
